<svg xmlns="http://www.w3.org/2000/svg" viewBox="0 0 17.84 23.67"><defs><style>.cls-1{fill:#fff;}</style></defs><title>couch</title><g id="Layer_2" data-name="Layer 2"><g id="Layer_1-2" data-name="Layer 1"><path class="cls-1" d="M16.08,23.55a1.81,1.81,0,0,1-.5.05c-2.13.18-8.91.39-12.91-5-3.21-4.32-3.88-11.45,0-15.46C5.67,0,11.33-1,14,1.16c1.4,1.17,2.45,3.66,1.66,4.83a1.53,1.53,0,0,1-1.56.65C13.22,6.32,13.5,4,13.16,4c0,0-.07,0-.18.18-.45.84.21,1.88,0,2s-.75-.33-1-1c-.34-.92.25-1.59,0-1.81C11.54,2.89,7.74,4.53,6.45,8c-.62,1.65-.92,4.4.37,5.3,1.51,1,3.49-1.54,6.08-.7a7.27,7.27,0,0,1,4.58,4.47C18.33,19.66,17.56,23.08,16.08,23.55Z"/></g></g></svg>