<svg xmlns="http://www.w3.org/2000/svg" viewBox="0 0 15.95 22.02"><defs><style>.cls-1{fill:#fff;}</style></defs><title>route</title><g id="Layer_2" data-name="Layer 2"><g id="Layer_1-2" data-name="Layer 1"><path class="cls-1" d="M8.43,21.51c-3.84-4.84-6.11-9.09-6.4-12a4.24,4.24,0,0,1,0-1C2.27,6,4.48,2.32,8.44,2l.49,0c4.05,0,6.7,3.82,7,6.46a4,4,0,0,1,0,1C15.59,12.51,12.94,16.76,8.43,21.51ZM8.86,5.24A4.09,4.09,0,0,0,5.64,6.66a4.56,4.56,0,0,0-1.07,3,4.22,4.22,0,0,0,4.29,4.41,4.1,4.1,0,0,0,3.23-1.42,4.56,4.56,0,0,0,1.07-3A4.22,4.22,0,0,0,8.86,5.24Z" transform="translate(-1 -1)"/><path class="cls-1" d="M8.93,3c3.59,0,5.78,3.57,6,5.57a3.86,3.86,0,0,1,0,.79C14.64,12,12.33,15.77,8.5,20,5.21,15.67,3.28,12,3,9.38a3.65,3.65,0,0,1,0-.82C3.23,6.47,5.13,3.27,8.51,3l.42,0M8.86,15.06a5.24,5.24,0,0,0,5.3-5.41A5.61,5.61,0,0,0,12.85,6a5.16,5.16,0,0,0-4-1.76A5.24,5.24,0,0,0,3.57,9.65,5.61,5.61,0,0,0,4.88,13.3a5.15,5.15,0,0,0,4,1.76M8.93,1,8.36,1C4,1.36,1.33,5.4,1,8.35A6.08,6.08,0,0,0,1,9.58C1.5,14.28,6.18,20.36,8.36,23c2.37-2.42,8-8.51,8.56-13.44a6,6,0,0,0,0-1.23C16.58,5.26,13.51,1,8.93,1ZM8.86,13.06c-4.39,0-4.38-6.82,0-6.82s4.39,6.82,0,6.82Z" transform="translate(-1 -1)"/></g></g></svg>