<svg width="16" height="22" viewBox="0 0 16 22" fill="none" xmlns="http://www.w3.org/2000/svg">
<path d="M7.43007 20.51C3.59007 15.67 1.32007 11.42 1.03007 8.51C0.990627 8.17783 0.990627 7.84217 1.03007 7.51C1.27007 5 3.48007 1.32 7.44007 1H7.93007C11.9801 1 14.6301 4.82 14.9301 7.46C14.9719 7.79202 14.9719 8.12798 14.9301 8.46C14.5901 11.51 11.9401 15.76 7.43007 20.51ZM7.86007 4.24C7.2515 4.2221 6.64661 4.3403 6.08954 4.58597C5.53246 4.83163 5.03726 5.19857 4.64007 5.66C3.9344 6.49888 3.55455 7.56389 3.57007 8.66C3.54403 9.2359 3.63625 9.81103 3.84107 10.3499C4.04588 10.8888 4.35892 11.38 4.7609 11.7932C5.16288 12.2064 5.64526 12.5329 6.17828 12.7525C6.71131 12.9721 7.28367 13.0802 7.86007 13.07C8.47021 13.0887 9.07683 12.9709 9.63564 12.7252C10.1944 12.4796 10.6913 12.1122 11.0901 11.65C11.7957 10.8111 12.1756 9.74611 12.1601 8.65C12.1862 8.07324 12.0937 7.49727 11.8882 6.9577C11.6828 6.41813 11.3689 5.92646 10.9658 5.51309C10.5628 5.09972 10.0792 4.77345 9.54497 4.55447C9.01076 4.3355 8.4373 4.22846 7.86007 4.24Z" fill="#0038FF"/>
<path d="M7.92993 2C11.5199 2 13.7099 5.57 13.9299 7.57C13.957 7.83264 13.957 8.09736 13.9299 8.36C13.6399 11 11.3299 14.77 7.49993 19C4.20993 14.67 2.27993 11 1.99993 8.38C1.96913 8.10753 1.96913 7.83247 1.99993 7.56C2.22993 5.47 4.12993 2.27 7.50993 2H7.92993ZM7.85993 14.06C8.56764 14.0685 9.26972 13.9335 9.92383 13.6632C10.5779 13.3929 11.1705 12.9929 11.6658 12.4874C12.1611 11.9818 12.5488 11.3811 12.8056 10.7216C13.0624 10.0621 13.1829 9.35738 13.1599 8.65C13.171 7.31629 12.7066 6.02226 11.8499 5C11.3526 4.43183 10.7366 3.97974 10.0455 3.67564C9.3543 3.37153 8.60483 3.22282 7.84993 3.24C7.14391 3.23424 6.444 3.37122 5.79223 3.64272C5.14047 3.91421 4.55029 4.31463 4.05715 4.81992C3.564 5.3252 3.17806 5.92494 2.92249 6.58311C2.66692 7.24129 2.547 7.94432 2.56993 8.65C2.55883 9.98371 3.02326 11.2777 3.87993 12.3C4.37684 12.8687 4.99274 13.3212 5.684 13.6253C6.37525 13.9295 7.12494 14.0779 7.87993 14.06H7.85993ZM7.92993 0H7.35993C2.99993 0.36 0.329934 4.4 -6.6001e-05 7.35C-0.0416447 7.75895 -0.0416447 8.17105 -6.6001e-05 8.58C0.499934 13.28 5.17993 19.36 7.35993 22C9.72993 19.58 15.3599 13.49 15.9199 8.56C15.9621 8.15108 15.9621 7.73892 15.9199 7.33C15.5799 4.26 12.5099 0 7.92993 0ZM7.85993 12.06C3.46993 12.06 3.47993 5.24 7.85993 5.24C12.2399 5.24 12.2499 12.06 7.85993 12.06Z" fill="#0038FF"/>
</svg>
