<svg width="19" height="18" viewBox="0 0 19 18" fill="none" xmlns="http://www.w3.org/2000/svg">
<path d="M1 3.89719e-05C0.734784 3.89719e-05 0.48043 0.105396 0.292893 0.292933C0.105357 0.480469 0 0.734823 0 1.00004C0 1.26525 0.105357 1.51961 0.292893 1.70715C0.48043 1.89468 0.734784 2.00004 1 2.00004C1.26522 2.00004 1.51957 1.89468 1.70711 1.70715C1.89464 1.51961 2 1.26525 2 1.00004C2 0.734823 1.89464 0.480469 1.70711 0.292933C1.51957 0.105396 1.26522 3.89719e-05 1 3.89719e-05ZM5 3.89719e-05C4.86749 -0.00183507 4.73593 0.0226462 4.61296 0.07206C4.48999 0.121474 4.37807 0.194835 4.2837 0.287879C4.18933 0.380924 4.11439 0.491795 4.06324 0.614053C4.0121 0.73631 3.98576 0.867514 3.98576 1.00004C3.98576 1.13256 4.0121 1.26377 4.06324 1.38602C4.11439 1.50828 4.18933 1.61915 4.2837 1.7122C4.37807 1.80524 4.48999 1.8786 4.61296 1.92802C4.73593 1.97743 4.86749 2.00191 5 2.00004H17C17.1325 2.00191 17.2641 1.97743 17.387 1.92802C17.51 1.8786 17.6219 1.80524 17.7163 1.7122C17.8107 1.61915 17.8856 1.50828 17.9368 1.38602C17.9879 1.26377 18.0142 1.13256 18.0142 1.00004C18.0142 0.867514 17.9879 0.73631 17.9368 0.614053C17.8856 0.491795 17.8107 0.380924 17.7163 0.287879C17.6219 0.194835 17.51 0.121474 17.387 0.07206C17.2641 0.0226462 17.1325 -0.00183507 17 3.89719e-05H5ZM1 4.00004C0.734784 4.00004 0.48043 4.1054 0.292893 4.29293C0.105357 4.48047 0 4.73482 0 5.00004C0 5.26525 0.105357 5.51961 0.292893 5.70715C0.48043 5.89468 0.734784 6.00004 1 6.00004C1.26522 6.00004 1.51957 5.89468 1.70711 5.70715C1.89464 5.51961 2 5.26525 2 5.00004C2 4.73482 1.89464 4.48047 1.70711 4.29293C1.51957 4.1054 1.26522 4.00004 1 4.00004ZM5 4.00004C4.86749 3.99816 4.73593 4.02265 4.61296 4.07206C4.48999 4.12147 4.37807 4.19483 4.2837 4.28788C4.18933 4.38092 4.11439 4.4918 4.06324 4.61405C4.0121 4.73631 3.98576 4.86751 3.98576 5.00004C3.98576 5.13256 4.0121 5.26377 4.06324 5.38602C4.11439 5.50828 4.18933 5.61915 4.2837 5.7122C4.37807 5.80524 4.48999 5.8786 4.61296 5.92802C4.73593 5.97743 4.86749 6.00191 5 6.00004H15C15.1325 6.00191 15.2641 5.97743 15.387 5.92802C15.51 5.8786 15.6219 5.80524 15.7163 5.7122C15.8107 5.61915 15.8856 5.50828 15.9368 5.38602C15.9879 5.26377 16.0142 5.13256 16.0142 5.00004C16.0142 4.86751 15.9879 4.73631 15.9368 4.61405C15.8856 4.4918 15.8107 4.38092 15.7163 4.28788C15.6219 4.19483 15.51 4.12147 15.387 4.07206C15.2641 4.02265 15.1325 3.99816 15 4.00004H5ZM1 8.00004C0.734784 8.00004 0.48043 8.1054 0.292893 8.29293C0.105357 8.48047 0 8.73482 0 9.00004C0 9.26526 0.105357 9.51961 0.292893 9.70715C0.48043 9.89468 0.734784 10 1 10C1.26522 10 1.51957 9.89468 1.70711 9.70715C1.89464 9.51961 2 9.26526 2 9.00004C2 8.73482 1.89464 8.48047 1.70711 8.29293C1.51957 8.1054 1.26522 8.00004 1 8.00004ZM5 8.00004C4.86749 7.99816 4.73593 8.02265 4.61296 8.07206C4.48999 8.12147 4.37807 8.19483 4.2837 8.28788C4.18933 8.38092 4.11439 8.4918 4.06324 8.61405C4.0121 8.73631 3.98576 8.86751 3.98576 9.00004C3.98576 9.13256 4.0121 9.26377 4.06324 9.38602C4.11439 9.50828 4.18933 9.61915 4.2837 9.7122C4.37807 9.80524 4.48999 9.8786 4.61296 9.92802C4.73593 9.97743 4.86749 10.0019 5 10H13C13.1325 10.0019 13.2641 9.97743 13.387 9.92802C13.51 9.8786 13.6219 9.80524 13.7163 9.7122C13.8107 9.61915 13.8856 9.50828 13.9368 9.38602C13.9879 9.26377 14.0142 9.13256 14.0142 9.00004C14.0142 8.86751 13.9879 8.73631 13.9368 8.61405C13.8856 8.4918 13.8107 8.38092 13.7163 8.28788C13.6219 8.19483 13.51 8.12147 13.387 8.07206C13.2641 8.02265 13.1325 7.99816 13 8.00004H5ZM1 12C0.734784 12 0.48043 12.1054 0.292893 12.2929C0.105357 12.4804 0 12.7348 0 13C0 13.2652 0.105357 13.5196 0.292893 13.7071C0.48043 13.8947 0.734784 14 1 14C1.26522 14 1.51957 13.8947 1.70711 13.7071C1.89464 13.5196 2 13.2652 2 13C2 12.7348 1.89464 12.4804 1.70711 12.2929C1.51957 12.1054 1.26522 12 1 12ZM5 12C4.86749 11.9981 4.73593 12.0226 4.61296 12.072C4.48999 12.1214 4.37807 12.1948 4.2837 12.2878C4.18933 12.3809 4.11439 12.4918 4.06324 12.614C4.0121 12.7363 3.98576 12.8675 3.98576 13C3.98576 13.1325 4.0121 13.2637 4.06324 13.386C4.11439 13.5083 4.18933 13.6191 4.2837 13.7122C4.37807 13.8052 4.48999 13.8786 4.61296 13.928C4.73593 13.9774 4.86749 14.0019 5 14H11C11.1325 14.0019 11.2641 13.9774 11.387 13.928C11.51 13.8786 11.6219 13.8052 11.7163 13.7122C11.8107 13.6191 11.8856 13.5083 11.9368 13.386C11.9879 13.2637 12.0142 13.1325 12.0142 13C12.0142 12.8675 11.9879 12.7363 11.9368 12.614C11.8856 12.4918 11.8107 12.3809 11.7163 12.2878C11.6219 12.1948 11.51 12.1214 11.387 12.072C11.2641 12.0226 11.1325 11.9981 11 12H5ZM1 16C0.734784 16 0.48043 16.1054 0.292893 16.2929C0.105357 16.4804 0 16.7348 0 17C0 17.2652 0.105357 17.5196 0.292893 17.7071C0.48043 17.8947 0.734784 18 1 18C1.26522 18 1.51957 17.8947 1.70711 17.7071C1.89464 17.5196 2 17.2652 2 17C2 16.7348 1.89464 16.4804 1.70711 16.2929C1.51957 16.1054 1.26522 16 1 16ZM5 16C4.86749 15.9981 4.73593 16.0226 4.61296 16.072C4.48999 16.1214 4.37807 16.1948 4.2837 16.2878C4.18933 16.3809 4.11439 16.4918 4.06324 16.614C4.0121 16.7363 3.98576 16.8675 3.98576 17C3.98576 17.1325 4.0121 17.2637 4.06324 17.386C4.11439 17.5083 4.18933 17.6191 4.2837 17.7122C4.37807 17.8052 4.48999 17.8786 4.61296 17.928C4.73593 17.9774 4.86749 18.0019 5 18H9C9.13251 18.0019 9.26407 17.9774 9.38704 17.928C9.51001 17.8786 9.62193 17.8052 9.7163 17.7122C9.81067 17.6191 9.88561 17.5083 9.93676 17.386C9.9879 17.2637 10.0142 17.1325 10.0142 17C10.0142 16.8675 9.9879 16.7363 9.93676 16.614C9.88561 16.4918 9.81067 16.3809 9.7163 16.2878C9.62193 16.1948 9.51001 16.1214 9.38704 16.072C9.26407 16.0226 9.13251 15.9981 9 16H5Z" fill="white"/>
</svg>
