<svg xmlns="http://www.w3.org/2000/svg" viewBox="0 0 21.7 20.82"><defs><style>.cls-1{fill:#fff;}.cls-2{fill:#0038ff;}</style></defs><title>sneaker_1</title><g id="Layer_2" data-name="Layer 2"><g id="Layer_1-2" data-name="Layer 1"><path class="cls-1" d="M9.22,15.67A69.7,69.7,0,0,1,0,8.8C3.92,1.58,5.74-.27,6.56,0s.19,3.24,2.1,4.71c1.23.94,2.24.31,4.1.78,3.28.83,5.11,4.07,6.34,6.25.38.66,3.9,7,2.08,8.65S13.59,18.39,9.22,15.67Z"/><path class="cls-2" d="M14.77,6.9a1,1,0,0,1-.08.11l0,.06s.08-.09,0,0a3.22,3.22,0,0,1-.24.28l-.14.13-.08.07-.06,0s-.05,0-.06,0l-.1.07-.23.13-.2.11-.07,0L13.4,8a2.64,2.64,0,0,1-.4.12c-.1,0-.24,0-.34.07s.11,0,0,0h-.2a.51.51,0,0,0-.5.5.5.5,0,0,0,.5.5,4,4,0,0,0,3.13-1.8.51.51,0,0,0-.18-.69.51.51,0,0,0-.68.18Z"/><path class="cls-2" d="M16.75,9.19l-.14.18s-.06.08,0,.05,0,.05,0,.05a2.89,2.89,0,0,1-.29.32,1,1,0,0,1-.15.14s-.08.07,0,0l0,0c-.11.08-.23.15-.35.22l-.17.08c-.07,0,.07,0,0,0l-.1,0a2.72,2.72,0,0,1-.38.11l-.18,0c-.06,0,.07,0,0,0h-.51a.5.5,0,0,0-.5.5.51.51,0,0,0,.5.5,3.51,3.51,0,0,0,1.88-.41,4.38,4.38,0,0,0,1.45-1.39A.49.49,0,0,0,17.43,9a.5.5,0,0,0-.68.18Z"/><path class="cls-2" d="M18.25,11.74s-.07.13-.06.17,0-.1,0,0l0,.07c-.05.1-.11.2-.17.3l-.06.07c.07-.11,0,0,0,0l-.1.12-.26.24c-.06.05,0,0,0,0l-.07.05-.14.1-.31.16s.11,0,0,0L17,13l-.16.05-.17,0h-.08a.58.58,0,0,0-.35.15.53.53,0,0,0-.15.35.5.5,0,0,0,.5.5,3.1,3.1,0,0,0,1.67-.69,3,3,0,0,0,1-1.42.49.49,0,0,0-.35-.61.5.5,0,0,0-.61.35Z"/></g></g></svg>